<svg width="158" height="38" viewBox="0 0 158 38" fill="none" xmlns="http://www.w3.org/2000/svg">
<path d="M14.0397 28.8294C16.0505 28.8265 17.4622 27.9004 18.276 27.0296C18.7644 26.4853 19.5795 26.4298 20.1237 26.918C20.6678 27.4063 20.6692 28.2216 20.1809 28.7658C18.9872 30.0718 16.9241 31.4337 14.0436 31.4381C11.1088 31.4426 9.04156 30.087 7.84392 28.7845C7.35396 28.2418 7.35272 27.4266 7.89545 26.9366C8.43819 26.4467 9.25349 26.4999 9.74344 27.0425C10.56 27.9108 11.9744 28.8325 14.0397 28.8294ZM11.419 21.0074C11.4205 21.9857 10.6608 22.7477 9.68255 22.7491C8.70429 22.7507 7.94227 21.9909 7.94078 21.0126C7.93937 20.0888 8.699 19.2725 9.67726 19.2709C10.6555 19.2695 11.4176 20.0836 11.419 21.0074ZM16.6364 20.9994C16.635 20.0756 17.3946 19.2593 18.3729 19.2577C19.3512 19.2563 20.1132 20.0702 20.1146 20.9942C20.1162 21.9724 19.3565 22.7345 18.3783 22.7359C17.3999 22.7375 16.6379 21.9777 16.6364 20.9994ZM27.9447 23.5909C27.9565 31.3082 21.7158 37.5133 14.0529 37.525C6.33551 37.5368 0.13042 31.3506 0.118669 23.6333C0.107 15.9703 6.29314 9.71097 14.0105 9.69924C21.6736 9.68757 27.9331 15.928 27.9447 23.5909ZM14.0145 12.3079C7.7645 12.3174 2.71794 17.4337 2.72736 23.6293C2.73688 29.8793 7.79892 34.9259 14.0489 34.9163C20.2445 34.9069 25.3456 29.8449 25.336 23.5949C25.3266 17.3993 20.2101 12.2985 14.0145 12.3079Z" fill="#191919"/>
<path d="M28.0618 0.614502L29.441 7.24338L36.074 8.60222L29.445 9.98126L28.0862 16.6143L26.7072 9.98542L20.074 8.62658L26.703 7.24754L28.0618 0.614502Z" fill="#FC7E55"/>
<path d="M38 33.44V13H41.892V33.44H38ZM41.332 33.44V30.08H50.6V33.44H41.332ZM41.332 24.732V21.372H49.872V24.732H41.332ZM41.332 16.36V13H50.376V16.36H41.332Z" fill="#191919"/>
<path d="M54.6797 33.44V13H60.1117L65.2357 25.208H65.7397L70.8357 13H76.3517V33.44H72.4037V15.996L72.9077 16.052L67.3917 29.268H63.3317L57.7877 16.052L58.3197 15.996V33.44H54.6797Z" fill="#191919"/>
<path d="M81.3945 33.44V13H86.8265L91.9505 25.208H92.4545L97.5505 13H103.067V33.44H99.1185V15.996L99.6225 16.052L94.1065 29.268H90.0465L84.5025 16.052L85.0345 15.996V33.44H81.3945Z" fill="#191919"/>
<path d="M108.165 33.44V13H112.141V33.44H108.165Z" fill="#191919"/>
<path d="M117.242 33.44V13H121.134V33.44H117.242ZM120.574 33.44V30.08H129.842V33.44H120.574ZM120.574 24.732V21.372H129.114V24.732H120.574ZM120.574 16.36V13H129.618V16.36H120.574Z" fill="#191919"/>
</svg>
